<svg width="200" height="42" viewBox="0 0 200 42" fill="none" xmlns="http://www.w3.org/2000/svg">
<path fill-rule="evenodd" clip-rule="evenodd" d="M24.5976 0C21.7159 0 19.3799 2.33603 19.3799 5.21767V36.5237C19.3799 39.4053 21.7159 41.7414 24.5976 41.7414H65.5935C68.4752 41.7414 70.8112 39.4053 70.8112 36.5237V5.21767C70.8112 2.33603 68.4752 0 65.5935 0H24.5976ZM37.3453 16.7796C37.5937 17.141 37.7886 17.5504 37.9297 18.0077H41.1315C41.0016 17.1551 40.7277 16.3758 40.3099 15.67C39.892 14.9641 39.3584 14.3542 38.709 13.8404C38.0652 13.3265 37.3283 12.9312 36.4983 12.6545C35.6682 12.3722 34.7731 12.231 33.8132 12.231C32.6782 12.231 31.6279 12.4343 30.6623 12.8409C29.6966 13.2418 28.8553 13.8291 28.1381 14.6027C27.421 15.3707 26.8619 16.3052 26.461 17.4064C26.0657 18.5075 25.8681 19.7583 25.8681 21.1587C25.8681 22.9882 26.2041 24.5694 26.8761 25.902C27.5537 27.229 28.4939 28.2539 29.6966 28.9767C30.9051 29.6939 32.3083 30.0524 33.9064 30.0524C35.3407 30.0524 36.6112 29.7616 37.718 29.18C38.8247 28.5927 39.6944 27.757 40.3268 26.6728C40.9592 25.5886 41.2755 24.304 41.2755 22.8188V20.7352H34.2367V23.1915H38.2336C38.219 23.987 38.0442 24.6844 37.7095 25.2837C37.3594 25.9048 36.8596 26.3848 36.2103 26.7236C35.5665 27.0624 34.8042 27.2318 33.9233 27.2318C32.952 27.2318 32.0994 26.9975 31.3653 26.5288C30.6312 26.0545 30.058 25.3627 29.6458 24.4536C29.2336 23.5445 29.0275 22.4349 29.0275 21.1248C29.0275 19.826 29.2336 18.7249 29.6458 17.8214C30.0637 16.9123 30.6368 16.2233 31.3653 15.7547C32.0937 15.286 32.9238 15.0516 33.8555 15.0516C34.375 15.0516 34.855 15.1194 35.2955 15.2549C35.7359 15.3848 36.1256 15.5796 36.4644 15.8394C36.8088 16.0991 37.1025 16.4125 37.3453 16.7796ZM47.4566 29.8153V12.4682H44.3142V29.8153H47.4566ZM50.0972 12.4682V15.1025H55.4589V29.8153H58.5759V15.1025H63.9376V12.4682H50.0972Z" fill="#86EFAC"/>
<path d="M15.6531 11.9261C15.6531 11.1028 14.9856 10.4353 14.1623 10.4353H11.1808C10.3575 10.4353 9.69002 11.1028 9.69002 11.9261V14.9076C9.69002 15.731 10.3575 16.3984 11.1808 16.3984H14.1623C14.9856 16.3984 15.6531 15.731 15.6531 14.9076V11.9261Z" fill="#81D09E"/>
<path d="M7.45386 16.3984C7.45386 15.5751 6.78642 14.9076 5.96309 14.9076H2.98157C2.15824 14.9076 1.4908 15.5751 1.4908 16.3984V19.3799C1.4908 20.2033 2.15824 20.8707 2.98157 20.8707H5.96309C6.78642 20.8707 7.45386 20.2033 7.45386 19.3799V16.3984Z" fill="#A5E2BB"/>
<path d="M16.3984 21.6161C16.3984 20.7927 15.731 20.1253 14.9077 20.1253H11.9261C11.1028 20.1253 10.4354 20.7927 10.4354 21.6161V24.5976C10.4354 25.4209 11.1028 26.0884 11.9261 26.0884H14.9077C15.731 26.0884 16.3984 25.4209 16.3984 24.5976V21.6161Z" fill="#86EFAC"/>
<path d="M14.9077 31.306C14.9077 30.4827 14.2403 29.8153 13.417 29.8153H10.4354C9.6121 29.8153 8.94466 30.4827 8.94466 31.306V34.2876C8.94466 35.1109 9.6121 35.7783 10.4354 35.7783H13.417C14.2403 35.7783 14.9077 35.1109 14.9077 34.2876V31.306Z" fill="#81D09E"/>
<path d="M5.96313 27.5791C5.96313 26.7558 5.2957 26.0884 4.47237 26.0884H1.49084C0.667519 26.0884 8.10623e-05 26.7558 8.10623e-05 27.5791V30.5607C8.10623e-05 31.384 0.667519 32.0514 1.49084 32.0514H4.47237C5.2957 32.0514 5.96313 31.384 5.96313 30.5607V27.5791Z" fill="#86EFAC"/>
<path d="M79.2792 11.0452V30.5606H75.7439V11.0452H79.2792Z" fill="white"/>
<path d="M99.1448 11.0452V30.5606H96.0002L86.8047 17.2676H86.6427V30.5606H83.1075V11.0452H86.2711L95.4571 24.3477H95.6286V11.0452H99.1448Z" fill="white"/>
<path d="M113.603 16.41C113.514 15.5778 113.139 14.9298 112.478 14.4661C111.824 14.0024 110.973 13.7705 109.925 13.7705C109.188 13.7705 108.556 13.8817 108.028 14.104C107.501 14.3263 107.098 14.6281 106.818 15.0093C106.539 15.3904 106.396 15.8256 106.389 16.3147C106.389 16.7213 106.481 17.0739 106.666 17.3725C106.856 17.671 107.113 17.9251 107.437 18.1348C107.761 18.3381 108.12 18.5096 108.514 18.6493C108.908 18.7891 109.305 18.9066 109.705 19.0019L111.535 19.4593C112.272 19.6308 112.98 19.8627 113.66 20.1549C114.346 20.4472 114.959 20.8156 115.499 21.2603C116.045 21.705 116.477 22.2418 116.795 22.8707C117.113 23.4996 117.271 24.2365 117.271 25.0814C117.271 26.2249 116.979 27.2318 116.395 28.1021C115.81 28.9661 114.965 29.6427 113.86 30.1318C112.761 30.6146 111.43 30.856 109.867 30.856C108.349 30.856 107.031 30.621 105.913 30.1509C104.801 29.6808 103.931 28.9947 103.302 28.0926C102.679 27.1905 102.343 26.0915 102.292 24.7956H105.77C105.821 25.4753 106.03 26.0407 106.399 26.4917C106.767 26.9428 107.247 27.2795 107.838 27.5018C108.435 27.7242 109.102 27.8353 109.839 27.8353C110.607 27.8353 111.281 27.721 111.859 27.4923C112.443 27.2572 112.901 26.9332 113.231 26.5203C113.561 26.101 113.73 25.6119 113.736 25.0528C113.73 24.5446 113.58 24.1254 113.288 23.795C112.996 23.4583 112.586 23.1788 112.059 22.9565C111.538 22.7278 110.928 22.5245 110.229 22.3466L108.009 21.7749C106.402 21.3619 105.131 20.7362 104.198 19.8976C103.27 19.0527 102.806 17.9315 102.806 16.5339C102.806 15.3841 103.118 14.3772 103.74 13.5132C104.369 12.6492 105.224 11.979 106.303 11.5026C107.383 11.0198 108.606 10.7784 109.972 10.7784C111.357 10.7784 112.57 11.0198 113.612 11.5026C114.66 11.979 115.483 12.6429 116.08 13.4941C116.677 14.339 116.986 15.311 117.005 16.41H113.603Z" fill="white"/>
<path d="M123.958 11.0452V30.5606H120.423V11.0452H123.958Z" fill="white"/>
<path d="M140.861 17.2772C140.702 16.7626 140.483 16.302 140.203 15.8955C139.93 15.4825 139.599 15.13 139.212 14.8377C138.831 14.5455 138.392 14.3263 137.897 14.1802C137.401 14.0278 136.861 13.9515 136.277 13.9515C135.229 13.9515 134.295 14.2152 133.476 14.7424C132.656 15.2697 132.011 16.0447 131.541 17.0675C131.077 18.084 130.845 19.3227 130.845 20.7838C130.845 22.2577 131.077 23.506 131.541 24.5288C132.005 25.5515 132.65 26.3297 133.476 26.8634C134.301 27.3906 135.261 27.6543 136.353 27.6543C137.344 27.6543 138.202 27.4637 138.926 27.0825C139.657 26.7014 140.219 26.1614 140.613 25.4626C141.007 24.7574 141.204 23.9316 141.204 22.985L142.004 23.1089H136.706V20.3455H144.624V22.6896C144.624 24.3604 144.269 25.8056 143.557 27.0254C142.846 28.2451 141.867 29.1853 140.622 29.846C139.377 30.5003 137.948 30.8274 136.334 30.8274C134.536 30.8274 132.958 30.424 131.598 29.6173C130.245 28.8041 129.187 27.6511 128.425 26.1582C127.669 24.659 127.291 22.8802 127.291 20.822C127.291 19.2465 127.514 17.8394 127.958 16.6006C128.409 15.3618 129.038 14.3105 129.845 13.4465C130.652 12.5762 131.598 11.9155 132.685 11.4645C133.771 11.0071 134.952 10.7784 136.229 10.7784C137.309 10.7784 138.316 10.9372 139.25 11.2548C140.184 11.5661 141.013 12.0108 141.737 12.5889C142.468 13.167 143.068 13.8531 143.538 14.6472C144.008 15.4412 144.316 16.3179 144.462 17.2772H140.861Z" fill="white"/>
<path d="M148.043 30.5606V11.0452H151.578V19.3068H160.621V11.0452H164.166V30.5606H160.621V22.2704H151.578V30.5606H148.043Z" fill="white"/>
<path d="M167.153 14.0087V11.0452H182.724V14.0087H176.692V30.5606H173.185V14.0087H167.153Z" fill="white"/>
<path d="M196.331 16.41C196.242 15.5778 195.868 14.9298 195.207 14.4661C194.553 14.0024 193.701 13.7705 192.653 13.7705C191.916 13.7705 191.284 13.8817 190.757 14.104C190.23 14.3263 189.826 14.6281 189.547 15.0093C189.267 15.3904 189.124 15.8256 189.118 16.3147C189.118 16.7213 189.21 17.0739 189.394 17.3725C189.585 17.671 189.842 17.9251 190.166 18.1348C190.49 18.3381 190.849 18.5096 191.243 18.6493C191.637 18.7891 192.034 18.9066 192.434 19.0019L194.264 19.4593C195 19.6308 195.709 19.8627 196.389 20.1549C197.075 20.4472 197.688 20.8156 198.228 21.2603C198.774 21.705 199.206 22.2418 199.524 22.8707C199.841 23.4996 200 24.2365 200 25.0814C200 26.2249 199.708 27.2318 199.123 28.1021C198.539 28.9661 197.694 29.6427 196.589 30.1318C195.49 30.6146 194.159 30.856 192.596 30.856C191.078 30.856 189.76 30.621 188.641 30.1509C187.53 29.6808 186.659 28.9947 186.03 28.0926C185.408 27.1905 185.071 26.0915 185.02 24.7956H188.498C188.549 25.4753 188.759 26.0407 189.127 26.4917C189.496 26.9428 189.975 27.2795 190.566 27.5018C191.163 27.7242 191.83 27.8353 192.567 27.8353C193.336 27.8353 194.009 27.721 194.588 27.4923C195.172 27.2572 195.629 26.9332 195.96 26.5203C196.29 26.101 196.458 25.6119 196.465 25.0528C196.458 24.5446 196.309 24.1254 196.017 23.795C195.725 23.4583 195.315 23.1788 194.788 22.9565C194.267 22.7278 193.657 22.5245 192.958 22.3466L190.738 21.7749C189.131 21.3619 187.86 20.7362 186.926 19.8976C185.999 19.0527 185.535 17.9315 185.535 16.5339C185.535 15.3841 185.846 14.3772 186.469 13.5132C187.098 12.6492 187.952 11.979 189.032 11.5026C190.112 11.0198 191.335 10.7784 192.701 10.7784C194.086 10.7784 195.299 11.0198 196.341 11.5026C197.389 11.979 198.212 12.6429 198.809 13.4941C199.406 14.339 199.714 15.311 199.733 16.41H196.331Z" fill="white"/>
</svg>
